<svg xmlns="http://www.w3.org/2000/svg" viewBox="0 0 960 600" role="img" aria-label="Crawler Overview">
  <defs><linearGradient id="bg" x1="0" y1="0" x2="1" y2="1"><stop stop-color="#082f49"/><stop offset="1" stop-color="#020617"/></linearGradient><radialGradient id="glow" cx="72%" cy="22%" r="58%"><stop stop-color="#38bdf8" stop-opacity=".45"/><stop offset="1" stop-color="#38bdf8" stop-opacity="0"/></radialGradient></defs>
  <rect width="960" height="600" rx="38" fill="url(#bg)"/>
  <rect width="960" height="600" rx="38" fill="url(#glow)"/>
  <circle cx="820" cy="92" r="90" fill="#f59e0b" opacity=".18"/>
  <text x="74" y="98" fill="#38bdf8" font-family="Inter,Arial,sans-serif" font-size="24" font-weight="900" letter-spacing="4">SALMA PORTFOLIO</text>
  <text x="74" y="154" fill="#f8fafc" font-family="Inter,Arial,sans-serif" font-size="54" font-weight="900">Crawler</text>
  <text x="76" y="196" fill="#f8fafc" opacity=".72" font-family="Inter,Arial,sans-serif" font-size="24" font-weight="600">Distributed search index · Overview</text>
  <rect x="115" y="368" width="110" height="84" rx="20" fill="#f8fafc" opacity=".10" stroke="#38bdf8"/><text x="148" y="417" fill="#f8fafc" font-size="24" font-weight="900">EC2</text><rect x="260" y="258" width="110" height="84" rx="20" fill="#f8fafc" opacity=".10" stroke="#38bdf8"/><text x="293" y="307" fill="#f8fafc" font-size="24" font-weight="900">EC2</text><rect x="445" y="363" width="110" height="84" rx="20" fill="#f8fafc" opacity=".10" stroke="#38bdf8"/><text x="478" y="412" fill="#f8fafc" font-size="24" font-weight="900">EC2</text><rect x="610" y="238" width="110" height="84" rx="20" fill="#f8fafc" opacity=".10" stroke="#38bdf8"/><text x="643" y="287" fill="#f8fafc" font-size="24" font-weight="900">EC2</text><rect x="745" y="378" width="110" height="84" rx="20" fill="#f8fafc" opacity=".10" stroke="#38bdf8"/><text x="778" y="427" fill="#f8fafc" font-size="24" font-weight="900">EC2</text><path d="M170 410 315 300 500 405 665 280 800 420" fill="none" stroke="#f59e0b" stroke-width="6" opacity=".8"/><rect x="385" y="155" width="190" height="82" rx="32" fill="#38bdf8" opacity=".95"/><text x="432" y="205" fill="#00111a" font-size="28" font-weight="900">SQS</text>
</svg>