<svg xmlns="http://www.w3.org/2000/svg" viewBox="0 0 960 600" role="img" aria-label="Cosmetics Shop Result">
  <defs><linearGradient id="bg" x1="0" y1="0" x2="1" y2="1"><stop stop-color="#3b0764"/><stop offset="1" stop-color="#020617"/></linearGradient><radialGradient id="glow" cx="72%" cy="22%" r="58%"><stop stop-color="#f472b6" stop-opacity=".45"/><stop offset="1" stop-color="#f472b6" stop-opacity="0"/></radialGradient></defs>
  <rect width="960" height="600" rx="38" fill="url(#bg)"/>
  <rect width="960" height="600" rx="38" fill="url(#glow)"/>
  <circle cx="820" cy="92" r="90" fill="#22c55e" opacity=".18"/>
  <text x="74" y="98" fill="#f472b6" font-family="Inter,Arial,sans-serif" font-size="24" font-weight="900" letter-spacing="4">SALMA PORTFOLIO</text>
  <text x="74" y="154" fill="#f8fafc" font-family="Inter,Arial,sans-serif" font-size="54" font-weight="900">Cosmetics Shop</text>
  <text x="76" y="196" fill="#f8fafc" opacity=".72" font-family="Inter,Arial,sans-serif" font-size="24" font-weight="600">Commerce dashboard · Result</text>
  <rect x="130" y="230" width="700" height="270" rx="28" fill="#f8fafc" opacity=".10" stroke="#f472b6"/><path d="M185 310h210M185 365h160M185 420h240" stroke="#f8fafc" stroke-width="14" stroke-linecap="round" opacity=".55"/><rect x="520" y="300" width="78" height="110" rx="18" fill="#f472b6" opacity=".8"/><circle cx="559" cy="285" r="24" fill="#22c55e" opacity=".75"/><rect x="630" y="300" width="78" height="110" rx="18" fill="#f472b6" opacity=".8"/><circle cx="669" cy="285" r="24" fill="#22c55e" opacity=".75"/><rect x="740" y="300" width="78" height="110" rx="18" fill="#f472b6" opacity=".8"/><circle cx="779" cy="285" r="24" fill="#22c55e" opacity=".75"/><path d="M520 465c55-70 115-70 175 0" fill="none" stroke="#22c55e" stroke-width="9" stroke-linecap="round"/>
</svg>