<svg xmlns="http://www.w3.org/2000/svg" viewBox="0 0 960 600" role="img" aria-label="FotoFlow Overview">
  <defs><linearGradient id="bg" x1="0" y1="0" x2="1" y2="1"><stop stop-color="#0f172a"/><stop offset="1" stop-color="#020617"/></linearGradient><radialGradient id="glow" cx="72%" cy="22%" r="58%"><stop stop-color="#2dd4bf" stop-opacity=".45"/><stop offset="1" stop-color="#2dd4bf" stop-opacity="0"/></radialGradient></defs>
  <rect width="960" height="600" rx="38" fill="url(#bg)"/>
  <rect width="960" height="600" rx="38" fill="url(#glow)"/>
  <circle cx="820" cy="92" r="90" fill="#38bdf8" opacity=".18"/>
  <text x="74" y="98" fill="#2dd4bf" font-family="Inter,Arial,sans-serif" font-size="24" font-weight="900" letter-spacing="4">SALMA PORTFOLIO</text>
  <text x="74" y="154" fill="#f8fafc" font-family="Inter,Arial,sans-serif" font-size="54" font-weight="900">FotoFlow</text>
  <text x="76" y="196" fill="#f8fafc" opacity=".72" font-family="Inter,Arial,sans-serif" font-size="24" font-weight="600">Document AI workflow · Overview</text>
  <rect x="110" y="250" width="130" height="82" rx="18" fill="#f8fafc" opacity=".10" stroke="#2dd4bf"/><text x="130" y="296" fill="#f8fafc" font-size="18" font-weight="700">Node 1</text><path d="M252 291h48" stroke="#38bdf8" stroke-width="7" stroke-linecap="round"/><path d="M294 276l18 15-18 15" fill="none" stroke="#38bdf8" stroke-width="7" stroke-linecap="round" stroke-linejoin="round"/><rect x="310" y="250" width="130" height="82" rx="18" fill="#f8fafc" opacity=".10" stroke="#2dd4bf"/><text x="330" y="296" fill="#f8fafc" font-size="18" font-weight="700">Node 2</text><path d="M452 291h48" stroke="#38bdf8" stroke-width="7" stroke-linecap="round"/><path d="M494 276l18 15-18 15" fill="none" stroke="#38bdf8" stroke-width="7" stroke-linecap="round" stroke-linejoin="round"/><rect x="510" y="250" width="130" height="82" rx="18" fill="#f8fafc" opacity=".10" stroke="#2dd4bf"/><text x="530" y="296" fill="#f8fafc" font-size="18" font-weight="700">Node 3</text><path d="M652 291h48" stroke="#38bdf8" stroke-width="7" stroke-linecap="round"/><path d="M694 276l18 15-18 15" fill="none" stroke="#38bdf8" stroke-width="7" stroke-linecap="round" stroke-linejoin="round"/><rect x="710" y="250" width="130" height="82" rx="18" fill="#f8fafc" opacity=".10" stroke="#2dd4bf"/><text x="730" y="296" fill="#f8fafc" font-size="18" font-weight="700">Node 4</text><rect x="110" y="390" width="730" height="90" rx="22" fill="#f8fafc" opacity=".08"/><path d="M150 436h240M430 436h150M620 436h170" stroke="#2dd4bf" stroke-width="10" stroke-linecap="round" opacity=".8"/>
</svg>