<svg xmlns="http://www.w3.org/2000/svg" viewBox="0 0 960 600" role="img" aria-label="Smart Home Result">
  <defs><linearGradient id="bg" x1="0" y1="0" x2="1" y2="1"><stop stop-color="#052e16"/><stop offset="1" stop-color="#020617"/></linearGradient><radialGradient id="glow" cx="72%" cy="22%" r="58%"><stop stop-color="#84cc16" stop-opacity=".45"/><stop offset="1" stop-color="#84cc16" stop-opacity="0"/></radialGradient></defs>
  <rect width="960" height="600" rx="38" fill="url(#bg)"/>
  <rect width="960" height="600" rx="38" fill="url(#glow)"/>
  <circle cx="820" cy="92" r="90" fill="#38bdf8" opacity=".18"/>
  <text x="74" y="98" fill="#84cc16" font-family="Inter,Arial,sans-serif" font-size="24" font-weight="900" letter-spacing="4">SALMA PORTFOLIO</text>
  <text x="74" y="154" fill="#f8fafc" font-family="Inter,Arial,sans-serif" font-size="54" font-weight="900">Smart Home</text>
  <text x="76" y="196" fill="#f8fafc" opacity=".72" font-family="Inter,Arial,sans-serif" font-size="24" font-weight="600">Embedded control center · Result</text>
  <rect x="345" y="225" width="270" height="210" rx="32" fill="#f8fafc" opacity=".12" stroke="#84cc16"/><path d="M390 355V285h70v70h70v-96h55" fill="none" stroke="#84cc16" stroke-width="12" stroke-linecap="round" stroke-linejoin="round"/><circle cx="180" cy="295" r="54" fill="#f8fafc" opacity=".10" stroke="#38bdf8"/><text x="180" y="303" text-anchor="middle" fill="#f8fafc" font-size="20" font-weight="800">Lamp</text><path d="M235 295 480 330" stroke="#38bdf8" stroke-width="5" opacity=".65"/><circle cx="770" cy="315" r="54" fill="#f8fafc" opacity=".10" stroke="#38bdf8"/><text x="770" y="323" text-anchor="middle" fill="#f8fafc" font-size="20" font-weight="800">Door</text><path d="M715 315 480 330" stroke="#38bdf8" stroke-width="5" opacity=".65"/><circle cx="255" cy="485" r="54" fill="#f8fafc" opacity=".10" stroke="#38bdf8"/><text x="255" y="493" text-anchor="middle" fill="#f8fafc" font-size="20" font-weight="800">UART</text><path d="M310 485 480 330" stroke="#38bdf8" stroke-width="5" opacity=".65"/><circle cx="695" cy="485" r="54" fill="#f8fafc" opacity=".10" stroke="#38bdf8"/><text x="695" y="493" text-anchor="middle" fill="#f8fafc" font-size="20" font-weight="800">Sensor</text><path d="M640 485 480 330" stroke="#38bdf8" stroke-width="5" opacity=".65"/>
</svg>