<svg xmlns="http://www.w3.org/2000/svg" viewBox="0 0 960 600" role="img" aria-label="Stroke ML Result">
  <defs><linearGradient id="bg" x1="0" y1="0" x2="1" y2="1"><stop stop-color="#172554"/><stop offset="1" stop-color="#020617"/></linearGradient><radialGradient id="glow" cx="72%" cy="22%" r="58%"><stop stop-color="#a78bfa" stop-opacity=".45"/><stop offset="1" stop-color="#a78bfa" stop-opacity="0"/></radialGradient></defs>
  <rect width="960" height="600" rx="38" fill="url(#bg)"/>
  <rect width="960" height="600" rx="38" fill="url(#glow)"/>
  <circle cx="820" cy="92" r="90" fill="#2dd4bf" opacity=".18"/>
  <text x="74" y="98" fill="#a78bfa" font-family="Inter,Arial,sans-serif" font-size="24" font-weight="900" letter-spacing="4">SALMA PORTFOLIO</text>
  <text x="74" y="154" fill="#f8fafc" font-family="Inter,Arial,sans-serif" font-size="54" font-weight="900">Stroke ML</text>
  <text x="76" y="196" fill="#f8fafc" opacity=".72" font-family="Inter,Arial,sans-serif" font-size="24" font-weight="600">Health risk prediction · Result</text>
  <rect x="150" y="380" width="72" height="80" rx="14" fill="#2dd4bf" opacity=".75"/><rect x="265" y="310" width="72" height="150" rx="14" fill="#a78bfa" opacity=".75"/><rect x="380" y="350" width="72" height="110" rx="14" fill="#2dd4bf" opacity=".75"/><rect x="495" y="255" width="72" height="205" rx="14" fill="#a78bfa" opacity=".75"/><rect x="610" y="320" width="72" height="140" rx="14" fill="#2dd4bf" opacity=".75"/><path d="M120 405C250 250 360 460 485 300S705 210 820 350" fill="none" stroke="#f8fafc" stroke-width="8" opacity=".75"/><circle cx="485" cy="300" r="16" fill="#a78bfa"/><circle cx="705" cy="230" r="16" fill="#2dd4bf"/>
</svg>